Coordinates
version=1
nRows=8
nColumns=46
inDegrees=yes

Units are S.I. units (second, meters, Newtons, ...)
Angles are in degrees.

endheader
time	pelvis_tilt	pelvis_list	pelvis_rotation	pelvis_tx	pelvis_ty	pelvis_tz	bb_angle	bb_tx	bb_ty	bb_tz	hip_flexion_r	hip_adduction_r	hip_rotation_r	knee_angle_r	knee_angle_r_beta	ankle_angle_r	subtalar_angle_r	mtp_angle_r	crank_angle_r	hip_flexion_l	hip_adduction_l	hip_rotation_l	knee_angle_l	knee_angle_l_beta	ankle_angle_l	subtalar_angle_l	mtp_angle_l	crank_angle_l	lumbar_extension	lumbar_bending	lumbar_rotation	arm_flex_r	arm_add_r	arm_rot_r	elbow_flex_r	pro_sup_r	wrist_flex_r	wrist_dev_r	arm_flex_l	arm_add_l	arm_rot_l	elbow_flex_l	pro_sup_l	wrist_flex_l	wrist_dev_l
      2.50000000	    -30.38991362	      2.34977723	      8.17092134	      0.25736790	      1.04618794	     -0.20016586	      0.00000000	      0.50000000	      0.00000000	      0.25000000	     58.58517662	     -8.21335047	      2.31600776	     46.06351153	      0.80395994	     -4.37870577	    -14.87599918	      0.00000000	      0.00000000	     62.66250616	     -3.18173623	      3.64464231	     90.40844465	      1.57792503	     -2.00037181	     -2.47014075	      0.00000000	      0.00000000	    -39.77123816	      3.82049239	     -6.36246380	     47.71683820	    -10.82572696	     26.23688235	     71.75616607	     52.16455174	      0.00000000	      0.00000000	     51.83765641	    -28.93688057	     30.58701329	     70.76259746	     50.09212117	      0.00000000	      0.00000000
      2.50500000	    -30.18147825	      2.53816332	      8.61185955	      0.25756956	      1.04369541	     -0.20027516	      0.00000000	      0.50000000	      0.00000000	      0.25000000	     57.34761844	     -8.69274848	      1.86767644	     44.76262236	      0.78125514	     -5.50356018	    -14.88737056	      0.00000000	      0.00000000	     63.84372662	     -2.80314226	      3.98547151	     92.68426196	      1.61764554	     -0.98208465	     -1.92921441	      0.00000000	      0.00000000	    -39.56908017	      3.56743661	     -6.45968565	     46.95723142	    -10.78264999	     25.50357431	     71.85836724	     52.10917768	      0.00000000	      0.00000000	     52.26509776	    -28.65345132	     31.44267811	     70.48519237	     50.13293927	      0.00000000	      0.00000000
      2.51000000	    -29.94226582	      2.73559653	      9.00265009	      0.25790193	      1.04132021	     -0.20032529	      0.00000000	      0.50000000	      0.00000000	      0.25000000	     56.00244557	     -9.10693142	      1.46952686	     43.41126513	      0.75766951	     -6.70128572	    -15.10660036	      0.00000000	      0.00000000	     65.03062796	     -2.54517657	      4.22082177	     94.90454519	      1.65639679	     -0.11616653	     -1.02158021	      0.00000000	      0.00000000	    -39.34921003	      3.20671384	     -6.43663042	     46.07869611	    -10.80176284	     24.28156232	     72.09877207	     52.02815682	      0.00000000	      0.00000000	     52.92955609	    -28.25755703	     32.76032641	     69.94877320	     50.17628009	      0.00000000	      0.00000000
      2.51500000	    -29.86655242	      2.99551866	      9.11864044	      0.25865118	      1.03871276	     -0.20005634	      0.00000000	      0.50000000	      0.00000000	      0.25000000	     54.80803796	     -9.30610063	      1.32172290	     42.04281009	      0.73378546	     -7.65860412	    -15.42781705	      0.00000000	      0.00000000	     66.33416011	     -2.60167284	      4.18055739	     97.07144202	      1.69421627	      0.76125029	     -0.03355444	      0.00000000	      0.00000000	    -39.13352252	      2.13308428	     -3.07977349	     41.04299679	    -12.97832150	     17.19057696	     77.92232173	     52.26232017	      0.00000000	      0.00000000	     58.51714015	    -24.30356649	     41.48428744	     63.35767589	     50.01321388	      0.00000000	      0.00000000
      2.52000000	    -29.69692517	      3.40332007	      9.47024634	      0.25863912	      1.03687359	     -0.19990166	      0.00000000	      0.50000000	      0.00000000	      0.25000000	     53.50361006	     -9.83513253	      1.07764888	     40.67314576	      0.70988031	     -8.42054047	    -15.11789366	      0.00000000	      0.00000000	     67.54147081	     -2.21508740	      4.12360257	     98.95077124	      1.72701676	      1.14944963	      0.04484776	      0.00000000	      0.00000000	    -39.02259879	      1.57255373	     -3.49674041	     40.66201437	    -12.96887884	     17.08911249	     77.80495740	     52.22545713	      0.00000000	      0.00000000	     58.78008055	    -24.12678076	     41.58680029	     63.38001330	     50.02454150	      0.00000000	      0.00000000
      2.52500000	    -29.51440753	      3.51481597	      9.81091383	      0.25922758	      1.03480333	     -0.19981174	      0.00000000	      0.50000000	      0.00000000	      0.25000000	     52.06193640	    -10.14261552	      0.44145491	     39.18963705	      0.68398820	     -9.64232679	    -15.56762224	      0.00000000	      0.00000000	     68.84849183	     -2.08446387	      4.37819801	    100.87295806	      1.76056524	      1.67787983	      0.84797681	      0.00000000	      0.00000000	    -38.83214318	      1.07130339	     -2.45188932	     38.70351622	    -13.28763495	     14.00950968	     79.12711006	     52.08596511	      0.00000000	      0.00000000	     60.96102021	    -22.52800206	     45.55951477	     60.62201485	     50.09155296	      0.00000000	      0.00000000
      2.53000000	    -29.44232127	      3.87028527	     10.10030186	      0.25962963	      1.03310798	     -0.19982495	      0.00000000	      0.50000000	      0.00000000	      0.25000000	     50.75138748	    -10.64067893	      0.05690921	     37.75138951	      0.65888604	    -10.29618227	    -15.11343310	      0.00000000	      0.00000000	     70.15614502	     -1.80318336	      4.24371601	    102.55125233	      1.78985701	      1.80332019	      0.99264522	      0.00000000	      0.00000000	    -38.63803296	      0.53420221	     -2.77485305	     38.27512498	    -13.35105617	     13.94389361	     79.01802648	     52.04776695	      0.00000000	      0.00000000	     61.07627424	    -22.32357849	     45.65732364	     60.65353038	     50.10081265	      0.00000000	      0.00000000
      2.53500000	    -29.23030715	      3.97682023	     10.39333641	      0.26049002	      1.03162046	     -0.19976766	      0.00000000	      0.50000000	      0.00000000	      0.25000000	     49.20659459	    -10.95363199	     -0.74829343	     36.24500546	      0.63259468	    -11.38295149	    -15.29921100	      0.00000000	      0.00000000	     71.39732861	     -1.74053488	      4.36421517	    104.20541719	      1.81872763	      2.17031763	      1.33981525	      0.00000000	      0.00000000	    -38.53418153	      0.01217472	     -1.87760150	     36.65106364	    -13.87085640	     11.63865063	     80.01964834	     51.95831309	      0.00000000	      0.00000000	     62.87303638	    -20.69147617	     48.99885837	     57.99502114	     50.12552725	      0.00000000	      0.00000000
